<svg width="24" height="24" viewBox="0 0 24 24" fill="none" xmlns="http://www.w3.org/2000/svg">
<g clip-path="url(#clip0_6_97)">
<path d="M5.48124 1.9922C5.39268 1.87829 5.28091 1.78453 5.15334 1.71714C5.02577 1.64974 4.88531 1.61027 4.74131 1.60133C4.59731 1.59239 4.45306 1.6142 4.31813 1.6653C4.1832 1.71639 4.06069 1.79561 3.95873 1.8977L2.40774 3.4502C1.68324 4.1762 1.41624 5.2037 1.73274 6.1052C3.04634 9.83658 5.18318 13.2243 7.98474 16.0172C10.7776 18.8187 14.1654 20.9555 17.8967 22.2692C18.7982 22.5857 19.8257 22.3187 20.5517 21.5942L22.1027 20.0432C22.2048 19.9412 22.284 19.8187 22.3351 19.6838C22.3862 19.5489 22.408 19.4046 22.3991 19.2606C22.3902 19.1166 22.3507 18.9762 22.2833 18.8486C22.2159 18.721 22.1221 18.6092 22.0082 18.5207L18.5477 15.8297C18.426 15.7353 18.2845 15.6698 18.1338 15.6381C17.9831 15.6064 17.8271 15.6093 17.6777 15.6467L14.3927 16.4672C13.9543 16.5768 13.4949 16.571 13.0593 16.4503C12.6237 16.3297 12.2268 16.0983 11.9072 15.7787L8.22324 12.0932C7.90339 11.7738 7.67172 11.3769 7.55081 10.9413C7.42988 10.5058 7.42383 10.0463 7.53324 9.6077L8.35524 6.3227C8.3926 6.17329 8.39554 6.01735 8.36384 5.86664C8.33214 5.71593 8.26662 5.57439 8.17224 5.4527L5.48124 1.9922ZM2.82624 0.766698C3.08873 0.504123 3.40408 0.300394 3.75134 0.16904C4.09861 0.0376865 4.46985 -0.0182865 4.84041 0.00483791C5.21097 0.0279623 5.57236 0.129655 5.90061 0.303163C6.22885 0.476672 6.51642 0.718026 6.74424 1.0112L9.43524 4.4702C9.92874 5.1047 10.1027 5.9312 9.90774 6.7112L9.08724 9.9962C9.04481 10.1663 9.0471 10.3446 9.09389 10.5136C9.14067 10.6826 9.23036 10.8366 9.35424 10.9607L13.0397 14.6462C13.164 14.7703 13.3183 14.8602 13.4876 14.907C13.6568 14.9537 13.8354 14.9559 14.0057 14.9132L17.2892 14.0927C17.6742 13.9965 18.0759 13.989 18.4642 14.0708C18.8524 14.1527 19.2169 14.3217 19.5302 14.5652L22.9892 17.2562C24.2327 18.2237 24.3467 20.0612 23.2337 21.1727L21.6827 22.7237C20.5727 23.8337 18.9137 24.3212 17.3672 23.7767C13.409 22.384 9.81514 20.118 6.85224 17.1467C3.88117 14.1842 1.61515 10.5909 0.222235 6.6332C-0.320765 5.0882 0.166735 3.4277 1.27674 2.3177L2.82774 0.766698H2.82624Z" fill="white"/>
</g>
<defs>
<clipPath id="clip0_6_97">
<rect width="24" height="24" fill="white"/>
</clipPath>
</defs>
</svg>
